<?xml version="1.0" standalone="no"?>
<!DOCTYPE svg PUBLIC "-//W3C//DTD SVG 20010904//EN"
 "http://www.w3.org/TR/2001/REC-SVG-20010904/DTD/svg10.dtd">
<svg version="1.0" xmlns="http://www.w3.org/2000/svg"
 width="980.000000pt" height="910.000000pt" viewBox="0 0 980.000000 910.000000"
 preserveAspectRatio="xMidYMid meet">

<g transform="translate(0.000000,910.000000) scale(0.100000,-0.100000)"
fill="#000000" stroke="none">
<path d="M1170 9080 c-165 -5 -207 -9 -270 -29 -188 -58 -373 -173 -531 -331
-116 -115 -162 -177 -243 -332 -104 -196 -113 -265 -122 -954 -6 -508 0 -654
31 -714 32 -61 47 -63 488 -68 l397 -4 0 -2449 0 -2449 155 0 155 0 0 2450 0
2450 1068 -2 1067 -3 7 -333 c4 -183 12 -359 18 -390 35 -193 227 -400 430
-463 57 -17 285 -37 443 -39 l27 0 0 -150 0 -150 150 0 150 0 0 150 0 150 310
0 310 0 0 -150 0 -150 150 0 150 0 0 150 0 150 28 0 c157 2 385 22 442 39 70
22 160 72 219 122 102 87 192 232 212 342 5 32 13 207 17 390 l7 332 1070 0
1070 0 3 -2447 2 -2448 150 0 150 0 0 2449 0 2449 398 4 c441 5 455 7 487 68
31 60 37 215 30 749 -3 283 -10 550 -15 592 -17 146 -106 358 -213 502 -33 45
-101 123 -151 172 -150 146 -285 230 -511 314 l-108 41 -3716 -2 c-2044 -1
-3804 -4 -3911 -8z m7645 -313 c255 -61 497 -271 605 -526 63 -148 63 -145 67
-738 l4 -543 -4590 0 -4591 0 0 469 c0 494 8 629 42 739 70 229 233 416 463
530 143 71 156 74 500 82 171 4 1912 6 3870 5 3289 -1 3565 -3 3630 -18z
m-2692 -2394 c-6 -389 -13 -461 -49 -520 -39 -62 -66 -80 -149 -99 -60 -14
-180 -17 -875 -21 -799 -5 -1115 3 -1209 28 -52 14 -106 65 -133 125 -15 36
-19 75 -23 221 -3 98 -7 260 -10 361 l-4 182 1228 0 1228 0 -4 -277z"/>
<path d="M3944 8480 c-348 -5 -469 -9 -493 -20 -71 -29 -80 -98 -81 -575 0
-483 10 -563 77 -595 47 -22 747 -32 1818 -26 539 4 1004 9 1032 12 62 8 96
34 114 90 8 27 13 162 16 439 6 529 -5 622 -76 655 -51 24 -1335 35 -2407 20z
m2176 -605 l0 -305 -1220 0 -1220 0 0 305 0 305 1220 0 1220 0 0 -305z"/>
<path d="M1530 7875 l0 -155 155 0 155 0 0 155 0 155 -155 0 -155 0 0 -155z"/>
<path d="M2147 8023 c-4 -3 -7 -73 -7 -155 l0 -148 155 0 155 0 0 155 0 155
-148 0 c-82 0 -152 -3 -155 -7z"/>
<path d="M2760 7875 l0 -155 150 0 150 0 0 155 0 155 -150 0 -150 0 0 -155z"/>
<path d="M6740 7875 l0 -155 150 0 150 0 0 155 0 155 -150 0 -150 0 0 -155z"/>
<path d="M7350 7875 l0 -155 155 0 156 0 -3 153 -3 152 -152 3 -153 3 0 -156z"/>
<path d="M7960 7875 l0 -155 155 0 155 0 0 155 0 155 -155 0 -155 0 0 -155z"/>
<path d="M4140 4500 c-631 -6 -667 -7 -697 -25 -72 -42 -86 -151 -59 -460 55
-633 209 -1268 437 -1802 34 -79 60 -146 57 -148 -3 -3 -189 -8 -414 -12
l-409 -6 -110 -54 c-133 -66 -237 -143 -303 -221 -63 -77 -86 -114 -138 -230
l-44 -97 -1172 -5 c-1156 -5 -1174 -5 -1208 -25 -65 -38 -75 -75 -75 -280 0
-150 3 -185 17 -211 20 -36 184 -210 472 -501 l201 -203 -348 0 -347 0 0 -105
0 -105 4900 0 4900 0 0 105 0 105 -347 0 -348 0 196 197 c291 295 457 471 477
507 14 26 17 60 17 211 0 205 -10 242 -75 280 -34 20 -52 20 -1208 25 l-1172
5 -45 99 c-99 221 -203 328 -433 445 l-120 61 -244 0 c-256 1 -548 13 -566 24
-6 3 11 57 46 138 30 73 81 205 113 293 l57 160 254 5 c228 5 258 8 306 27
165 67 292 212 321 368 7 34 11 191 11 380 0 356 -5 397 -63 494 -44 75 -142
170 -213 208 -66 35 -152 53 -261 53 l-73 0 0 73 c0 94 -15 144 -54 183 l-32
32 -184 6 c-282 9 -1278 12 -2020 6z m1984 -308 c7 -12 -11 -215 -39 -440 -67
-532 -198 -984 -466 -1614 l-33 -78 -686 0 -686 0 -81 193 c-178 420 -289 774
-367 1172 -35 174 -76 501 -83 653 l-6 122 1221 0 c671 0 1223 -3 1226 -8z
m546 -317 c64 -33 65 -42 65 -435 0 -488 14 -466 -283 -464 -120 1 -187 5
-195 13 -8 8 -2 46 21 143 48 201 101 496 111 616 12 139 16 142 153 142 69 0
108 -5 128 -15z m-300 -2134 c301 -7 372 -11 403 -24 59 -25 154 -105 203
-170 78 -105 180 -93 -923 -102 -916 -7 -3262 1 -3273 11 -10 11 48 102 103
160 95 102 133 112 457 123 305 10 2576 12 3030 2z m3120 -633 c0 -47 -73
-129 -480 -541 l-342 -347 -3768 0 -3767 0 -344 348 c-409 413 -479 491 -479
539 l0 33 4590 0 4590 0 0 -32z"/>
<path d="M3982 678 l3 -153 915 0 915 0 3 153 3 152 -921 0 -921 0 3 -152z"/>
</g>
</svg>
